<mxfile host="app.diagrams.net" modified="2023-06-27T17:14:21.894Z" agent="Mozilla/5.0 (Windows NT 10.0; Win64; x64) AppleWebKit/537.36 (KHTML, like Gecko) Chrome/114.0.0.0 Safari/537.36" etag="9ygETGVcT-9ntD7pAXcq" version="21.1.1" type="device">
  <diagram name="Page-1" id="eEzKM-qtJTeE9kbvhvQM">
    <mxGraphModel dx="1434" dy="768" grid="1" gridSize="10" guides="1" tooltips="1" connect="1" arrows="1" fold="1" page="1" pageScale="1" pageWidth="850" pageHeight="1100" math="0" shadow="0">
      <root>
        <mxCell id="0" />
        <mxCell id="1" parent="0" />
        <mxCell id="HzhaL5WDSrDqOw2rNnFT-5" style="edgeStyle=orthogonalEdgeStyle;rounded=0;orthogonalLoop=1;jettySize=auto;html=1;exitX=0.5;exitY=1;exitDx=0;exitDy=0;entryX=0.5;entryY=0;entryDx=0;entryDy=0;" edge="1" parent="1" source="HzhaL5WDSrDqOw2rNnFT-11" target="HzhaL5WDSrDqOw2rNnFT-4">
          <mxGeometry relative="1" as="geometry">
            <mxPoint x="415" y="100" as="sourcePoint" />
          </mxGeometry>
        </mxCell>
        <mxCell id="HzhaL5WDSrDqOw2rNnFT-2" value="Read Training Program" style="rounded=0;whiteSpace=wrap;html=1;" vertex="1" parent="1">
          <mxGeometry x="170" y="150" width="100" height="70" as="geometry" />
        </mxCell>
        <mxCell id="HzhaL5WDSrDqOw2rNnFT-10" style="edgeStyle=orthogonalEdgeStyle;rounded=0;orthogonalLoop=1;jettySize=auto;html=1;exitX=0.5;exitY=1;exitDx=0;exitDy=0;entryX=0.5;entryY=0;entryDx=0;entryDy=0;" edge="1" parent="1" source="HzhaL5WDSrDqOw2rNnFT-3" target="HzhaL5WDSrDqOw2rNnFT-9">
          <mxGeometry relative="1" as="geometry" />
        </mxCell>
        <mxCell id="HzhaL5WDSrDqOw2rNnFT-3" value="Login" style="rounded=0;whiteSpace=wrap;html=1;" vertex="1" parent="1">
          <mxGeometry x="560" y="155" width="100" height="70" as="geometry" />
        </mxCell>
        <mxCell id="HzhaL5WDSrDqOw2rNnFT-6" style="edgeStyle=orthogonalEdgeStyle;rounded=0;orthogonalLoop=1;jettySize=auto;html=1;exitX=0;exitY=0.5;exitDx=0;exitDy=0;" edge="1" parent="1" source="HzhaL5WDSrDqOw2rNnFT-4">
          <mxGeometry relative="1" as="geometry">
            <mxPoint x="270" y="190" as="targetPoint" />
          </mxGeometry>
        </mxCell>
        <mxCell id="HzhaL5WDSrDqOw2rNnFT-8" style="edgeStyle=orthogonalEdgeStyle;rounded=0;orthogonalLoop=1;jettySize=auto;html=1;exitX=1;exitY=0.5;exitDx=0;exitDy=0;entryX=0;entryY=0.5;entryDx=0;entryDy=0;" edge="1" parent="1" source="HzhaL5WDSrDqOw2rNnFT-4" target="HzhaL5WDSrDqOw2rNnFT-3">
          <mxGeometry relative="1" as="geometry" />
        </mxCell>
        <mxCell id="HzhaL5WDSrDqOw2rNnFT-4" value="" style="rhombus;whiteSpace=wrap;html=1;" vertex="1" parent="1">
          <mxGeometry x="396.25" y="175" width="37.5" height="30" as="geometry" />
        </mxCell>
        <mxCell id="HzhaL5WDSrDqOw2rNnFT-42" style="edgeStyle=orthogonalEdgeStyle;rounded=0;orthogonalLoop=1;jettySize=auto;html=1;exitX=0.5;exitY=1;exitDx=0;exitDy=0;entryX=1;entryY=0.5;entryDx=0;entryDy=0;" edge="1" parent="1" source="HzhaL5WDSrDqOw2rNnFT-9" target="HzhaL5WDSrDqOw2rNnFT-17">
          <mxGeometry relative="1" as="geometry" />
        </mxCell>
        <mxCell id="HzhaL5WDSrDqOw2rNnFT-9" value="User" style="rounded=0;whiteSpace=wrap;html=1;" vertex="1" parent="1">
          <mxGeometry x="575" y="290" width="70" height="60" as="geometry" />
        </mxCell>
        <mxCell id="HzhaL5WDSrDqOw2rNnFT-11" value="Landing Page" style="ellipse;whiteSpace=wrap;html=1;aspect=fixed;" vertex="1" parent="1">
          <mxGeometry x="375" y="30" width="80" height="80" as="geometry" />
        </mxCell>
        <mxCell id="HzhaL5WDSrDqOw2rNnFT-12" value="Registered User?" style="text;html=1;strokeColor=none;fillColor=none;align=center;verticalAlign=middle;whiteSpace=wrap;rounded=0;" vertex="1" parent="1">
          <mxGeometry x="420" y="125" width="60" height="30" as="geometry" />
        </mxCell>
        <mxCell id="HzhaL5WDSrDqOw2rNnFT-13" value="No" style="text;html=1;align=center;verticalAlign=middle;resizable=0;points=[];autosize=1;strokeColor=none;fillColor=none;" vertex="1" parent="1">
          <mxGeometry x="310" y="170" width="40" height="30" as="geometry" />
        </mxCell>
        <mxCell id="HzhaL5WDSrDqOw2rNnFT-14" value="Yes" style="text;html=1;align=center;verticalAlign=middle;resizable=0;points=[];autosize=1;strokeColor=none;fillColor=none;" vertex="1" parent="1">
          <mxGeometry x="480" y="165" width="40" height="30" as="geometry" />
        </mxCell>
        <mxCell id="HzhaL5WDSrDqOw2rNnFT-27" style="edgeStyle=orthogonalEdgeStyle;rounded=0;orthogonalLoop=1;jettySize=auto;html=1;exitX=0;exitY=0.5;exitDx=0;exitDy=0;entryX=1;entryY=0.5;entryDx=0;entryDy=0;" edge="1" parent="1" source="HzhaL5WDSrDqOw2rNnFT-16" target="HzhaL5WDSrDqOw2rNnFT-26">
          <mxGeometry relative="1" as="geometry" />
        </mxCell>
        <mxCell id="HzhaL5WDSrDqOw2rNnFT-16" value="Write Training Program" style="rounded=0;whiteSpace=wrap;html=1;" vertex="1" parent="1">
          <mxGeometry x="485" y="390" width="90" height="60" as="geometry" />
        </mxCell>
        <mxCell id="HzhaL5WDSrDqOw2rNnFT-17" value="Edit Training&amp;nbsp;&lt;br&gt;Program" style="rounded=0;whiteSpace=wrap;html=1;" vertex="1" parent="1">
          <mxGeometry x="480" y="470" width="90" height="60" as="geometry" />
        </mxCell>
        <mxCell id="HzhaL5WDSrDqOw2rNnFT-19" value="" style="endArrow=classic;html=1;rounded=0;exitX=0;exitY=1;exitDx=0;exitDy=0;entryX=0.5;entryY=0;entryDx=0;entryDy=0;" edge="1" parent="1" source="HzhaL5WDSrDqOw2rNnFT-9" target="HzhaL5WDSrDqOw2rNnFT-16">
          <mxGeometry width="50" height="50" relative="1" as="geometry">
            <mxPoint x="400" y="410" as="sourcePoint" />
            <mxPoint x="450" y="360" as="targetPoint" />
          </mxGeometry>
        </mxCell>
        <mxCell id="HzhaL5WDSrDqOw2rNnFT-23" value="Read Training Program" style="rounded=0;whiteSpace=wrap;html=1;" vertex="1" parent="1">
          <mxGeometry x="645" y="385" width="100" height="70" as="geometry" />
        </mxCell>
        <mxCell id="HzhaL5WDSrDqOw2rNnFT-29" style="edgeStyle=orthogonalEdgeStyle;rounded=0;orthogonalLoop=1;jettySize=auto;html=1;exitX=0;exitY=0.5;exitDx=0;exitDy=0;entryX=1;entryY=0.5;entryDx=0;entryDy=0;" edge="1" parent="1" source="HzhaL5WDSrDqOw2rNnFT-26" target="HzhaL5WDSrDqOw2rNnFT-28">
          <mxGeometry relative="1" as="geometry" />
        </mxCell>
        <mxCell id="HzhaL5WDSrDqOw2rNnFT-35" style="edgeStyle=orthogonalEdgeStyle;rounded=0;orthogonalLoop=1;jettySize=auto;html=1;exitX=0.5;exitY=1;exitDx=0;exitDy=0;entryX=1;entryY=0.75;entryDx=0;entryDy=0;" edge="1" parent="1" source="HzhaL5WDSrDqOw2rNnFT-26" target="HzhaL5WDSrDqOw2rNnFT-33">
          <mxGeometry relative="1" as="geometry" />
        </mxCell>
        <mxCell id="HzhaL5WDSrDqOw2rNnFT-26" value="" style="rhombus;whiteSpace=wrap;html=1;" vertex="1" parent="1">
          <mxGeometry x="365" y="405" width="35" height="30" as="geometry" />
        </mxCell>
        <mxCell id="HzhaL5WDSrDqOw2rNnFT-34" style="edgeStyle=orthogonalEdgeStyle;rounded=0;orthogonalLoop=1;jettySize=auto;html=1;exitX=0.5;exitY=1;exitDx=0;exitDy=0;entryX=0.5;entryY=0;entryDx=0;entryDy=0;" edge="1" parent="1" source="HzhaL5WDSrDqOw2rNnFT-28" target="HzhaL5WDSrDqOw2rNnFT-33">
          <mxGeometry relative="1" as="geometry" />
        </mxCell>
        <mxCell id="HzhaL5WDSrDqOw2rNnFT-28" value="Add Exercise" style="rounded=0;whiteSpace=wrap;html=1;" vertex="1" parent="1">
          <mxGeometry x="237.5" y="397.5" width="90" height="45" as="geometry" />
        </mxCell>
        <mxCell id="HzhaL5WDSrDqOw2rNnFT-30" style="edgeStyle=orthogonalEdgeStyle;rounded=0;orthogonalLoop=1;jettySize=auto;html=1;exitX=0;exitY=0.5;exitDx=0;exitDy=0;entryX=0.5;entryY=0;entryDx=0;entryDy=0;" edge="1" parent="1" source="HzhaL5WDSrDqOw2rNnFT-28" target="HzhaL5WDSrDqOw2rNnFT-28">
          <mxGeometry relative="1" as="geometry">
            <Array as="points">
              <mxPoint x="187.5" y="420" />
              <mxPoint x="187.5" y="378" />
              <mxPoint x="282.5" y="378" />
            </Array>
          </mxGeometry>
        </mxCell>
        <mxCell id="HzhaL5WDSrDqOw2rNnFT-31" value="While not finished" style="text;html=1;align=center;verticalAlign=middle;resizable=0;points=[];autosize=1;strokeColor=none;fillColor=none;" vertex="1" parent="1">
          <mxGeometry x="177.5" y="345" width="120" height="30" as="geometry" />
        </mxCell>
        <mxCell id="HzhaL5WDSrDqOw2rNnFT-60" style="edgeStyle=orthogonalEdgeStyle;rounded=0;orthogonalLoop=1;jettySize=auto;html=1;exitX=0;exitY=0.5;exitDx=0;exitDy=0;entryX=0;entryY=0.75;entryDx=0;entryDy=0;" edge="1" parent="1" source="HzhaL5WDSrDqOw2rNnFT-33" target="HzhaL5WDSrDqOw2rNnFT-9">
          <mxGeometry relative="1" as="geometry">
            <Array as="points">
              <mxPoint x="170" y="518" />
              <mxPoint x="170" y="335" />
            </Array>
          </mxGeometry>
        </mxCell>
        <mxCell id="HzhaL5WDSrDqOw2rNnFT-33" value="Save Program" style="rounded=0;whiteSpace=wrap;html=1;" vertex="1" parent="1">
          <mxGeometry x="237.5" y="495" width="90" height="45" as="geometry" />
        </mxCell>
        <mxCell id="HzhaL5WDSrDqOw2rNnFT-37" value="add exercise?" style="text;html=1;align=center;verticalAlign=middle;resizable=0;points=[];autosize=1;strokeColor=none;fillColor=none;" vertex="1" parent="1">
          <mxGeometry x="380" y="390" width="100" height="30" as="geometry" />
        </mxCell>
        <mxCell id="HzhaL5WDSrDqOw2rNnFT-39" value="yes" style="text;html=1;align=center;verticalAlign=middle;resizable=0;points=[];autosize=1;strokeColor=none;fillColor=none;" vertex="1" parent="1">
          <mxGeometry x="325" y="397.5" width="40" height="30" as="geometry" />
        </mxCell>
        <mxCell id="HzhaL5WDSrDqOw2rNnFT-40" value="no" style="text;html=1;align=center;verticalAlign=middle;resizable=0;points=[];autosize=1;strokeColor=none;fillColor=none;" vertex="1" parent="1">
          <mxGeometry x="335" y="530" width="40" height="30" as="geometry" />
        </mxCell>
        <mxCell id="HzhaL5WDSrDqOw2rNnFT-41" value="" style="endArrow=classic;html=1;rounded=0;entryX=0.44;entryY=0.029;entryDx=0;entryDy=0;entryPerimeter=0;exitX=1;exitY=1;exitDx=0;exitDy=0;" edge="1" parent="1" source="HzhaL5WDSrDqOw2rNnFT-9" target="HzhaL5WDSrDqOw2rNnFT-23">
          <mxGeometry width="50" height="50" relative="1" as="geometry">
            <mxPoint x="400" y="400" as="sourcePoint" />
            <mxPoint x="450" y="350" as="targetPoint" />
          </mxGeometry>
        </mxCell>
        <mxCell id="HzhaL5WDSrDqOw2rNnFT-43" value="" style="endArrow=classic;html=1;rounded=0;entryX=1;entryY=1;entryDx=0;entryDy=0;exitX=0;exitY=0.25;exitDx=0;exitDy=0;" edge="1" parent="1" source="HzhaL5WDSrDqOw2rNnFT-17" target="HzhaL5WDSrDqOw2rNnFT-26">
          <mxGeometry width="50" height="50" relative="1" as="geometry">
            <mxPoint x="400" y="400" as="sourcePoint" />
            <mxPoint x="450" y="350" as="targetPoint" />
          </mxGeometry>
        </mxCell>
        <mxCell id="HzhaL5WDSrDqOw2rNnFT-46" style="edgeStyle=orthogonalEdgeStyle;rounded=0;orthogonalLoop=1;jettySize=auto;html=1;exitX=0.5;exitY=1;exitDx=0;exitDy=0;entryX=0.5;entryY=0;entryDx=0;entryDy=0;" edge="1" parent="1" source="HzhaL5WDSrDqOw2rNnFT-47" target="HzhaL5WDSrDqOw2rNnFT-49">
          <mxGeometry relative="1" as="geometry" />
        </mxCell>
        <mxCell id="HzhaL5WDSrDqOw2rNnFT-47" value="Delete Exercise" style="rounded=0;whiteSpace=wrap;html=1;" vertex="1" parent="1">
          <mxGeometry x="250.75" y="589.5" width="90" height="45" as="geometry" />
        </mxCell>
        <mxCell id="HzhaL5WDSrDqOw2rNnFT-48" style="edgeStyle=orthogonalEdgeStyle;rounded=0;orthogonalLoop=1;jettySize=auto;html=1;exitX=0;exitY=0.5;exitDx=0;exitDy=0;entryX=0.5;entryY=0;entryDx=0;entryDy=0;" edge="1" parent="1" source="HzhaL5WDSrDqOw2rNnFT-47" target="HzhaL5WDSrDqOw2rNnFT-47">
          <mxGeometry relative="1" as="geometry">
            <Array as="points">
              <mxPoint x="200.75" y="612" />
              <mxPoint x="200.75" y="570" />
              <mxPoint x="295.75" y="570" />
            </Array>
          </mxGeometry>
        </mxCell>
        <mxCell id="HzhaL5WDSrDqOw2rNnFT-59" style="edgeStyle=orthogonalEdgeStyle;rounded=0;orthogonalLoop=1;jettySize=auto;html=1;exitX=0;exitY=0.5;exitDx=0;exitDy=0;entryX=0;entryY=0.5;entryDx=0;entryDy=0;" edge="1" parent="1" source="HzhaL5WDSrDqOw2rNnFT-49" target="HzhaL5WDSrDqOw2rNnFT-9">
          <mxGeometry relative="1" as="geometry">
            <mxPoint x="510" y="305" as="targetPoint" />
            <Array as="points">
              <mxPoint x="130" y="710" />
              <mxPoint x="130" y="320" />
            </Array>
          </mxGeometry>
        </mxCell>
        <mxCell id="HzhaL5WDSrDqOw2rNnFT-49" value="Save Program" style="rounded=0;whiteSpace=wrap;html=1;" vertex="1" parent="1">
          <mxGeometry x="250.75" y="687" width="90" height="45" as="geometry" />
        </mxCell>
        <mxCell id="HzhaL5WDSrDqOw2rNnFT-50" value="yes" style="text;html=1;align=center;verticalAlign=middle;resizable=0;points=[];autosize=1;strokeColor=none;fillColor=none;" vertex="1" parent="1">
          <mxGeometry x="348.25" y="610" width="40" height="30" as="geometry" />
        </mxCell>
        <mxCell id="HzhaL5WDSrDqOw2rNnFT-51" value="no" style="text;html=1;align=center;verticalAlign=middle;resizable=0;points=[];autosize=1;strokeColor=none;fillColor=none;" vertex="1" parent="1">
          <mxGeometry x="340.75" y="670" width="40" height="30" as="geometry" />
        </mxCell>
        <mxCell id="HzhaL5WDSrDqOw2rNnFT-55" style="edgeStyle=orthogonalEdgeStyle;rounded=0;orthogonalLoop=1;jettySize=auto;html=1;exitX=0;exitY=0.5;exitDx=0;exitDy=0;entryX=1;entryY=0.5;entryDx=0;entryDy=0;" edge="1" parent="1" source="HzhaL5WDSrDqOw2rNnFT-52" target="HzhaL5WDSrDqOw2rNnFT-47">
          <mxGeometry relative="1" as="geometry" />
        </mxCell>
        <mxCell id="HzhaL5WDSrDqOw2rNnFT-52" value="" style="rhombus;whiteSpace=wrap;html=1;" vertex="1" parent="1">
          <mxGeometry x="396.25" y="597" width="37.5" height="30" as="geometry" />
        </mxCell>
        <mxCell id="HzhaL5WDSrDqOw2rNnFT-54" value="" style="endArrow=classic;html=1;rounded=0;entryX=1;entryY=0;entryDx=0;entryDy=0;exitX=0;exitY=1;exitDx=0;exitDy=0;" edge="1" parent="1" source="HzhaL5WDSrDqOw2rNnFT-52" target="HzhaL5WDSrDqOw2rNnFT-49">
          <mxGeometry width="50" height="50" relative="1" as="geometry">
            <mxPoint x="405" y="710" as="sourcePoint" />
            <mxPoint x="455" y="660" as="targetPoint" />
          </mxGeometry>
        </mxCell>
        <mxCell id="HzhaL5WDSrDqOw2rNnFT-57" value="" style="endArrow=classic;html=1;rounded=0;entryX=1;entryY=0;entryDx=0;entryDy=0;exitX=0;exitY=1;exitDx=0;exitDy=0;" edge="1" parent="1" source="HzhaL5WDSrDqOw2rNnFT-17" target="HzhaL5WDSrDqOw2rNnFT-52">
          <mxGeometry width="50" height="50" relative="1" as="geometry">
            <mxPoint x="400" y="400" as="sourcePoint" />
            <mxPoint x="450" y="350" as="targetPoint" />
          </mxGeometry>
        </mxCell>
        <mxCell id="HzhaL5WDSrDqOw2rNnFT-58" value="delete exercise?" style="text;html=1;align=center;verticalAlign=middle;resizable=0;points=[];autosize=1;strokeColor=none;fillColor=none;" vertex="1" parent="1">
          <mxGeometry x="420" y="589.5" width="110" height="30" as="geometry" />
        </mxCell>
        <mxCell id="HzhaL5WDSrDqOw2rNnFT-61" style="edgeStyle=orthogonalEdgeStyle;rounded=0;orthogonalLoop=1;jettySize=auto;html=1;exitX=0.5;exitY=1;exitDx=0;exitDy=0;entryX=0.5;entryY=0;entryDx=0;entryDy=0;" edge="1" parent="1" source="HzhaL5WDSrDqOw2rNnFT-62" target="HzhaL5WDSrDqOw2rNnFT-64">
          <mxGeometry relative="1" as="geometry" />
        </mxCell>
        <mxCell id="HzhaL5WDSrDqOw2rNnFT-62" value="Edit Exercise" style="rounded=0;whiteSpace=wrap;html=1;" vertex="1" parent="1">
          <mxGeometry x="587.85" y="659" width="90" height="45" as="geometry" />
        </mxCell>
        <mxCell id="HzhaL5WDSrDqOw2rNnFT-63" style="edgeStyle=orthogonalEdgeStyle;rounded=0;orthogonalLoop=1;jettySize=auto;html=1;exitX=0;exitY=0.5;exitDx=0;exitDy=0;entryX=0.25;entryY=0;entryDx=0;entryDy=0;" edge="1" parent="1" source="HzhaL5WDSrDqOw2rNnFT-62" target="HzhaL5WDSrDqOw2rNnFT-62">
          <mxGeometry relative="1" as="geometry">
            <Array as="points">
              <mxPoint x="560" y="682" />
              <mxPoint x="560" y="640" />
              <mxPoint x="610" y="640" />
            </Array>
            <mxPoint x="633" y="640" as="targetPoint" />
          </mxGeometry>
        </mxCell>
        <mxCell id="HzhaL5WDSrDqOw2rNnFT-77" style="edgeStyle=orthogonalEdgeStyle;rounded=0;orthogonalLoop=1;jettySize=auto;html=1;exitX=0;exitY=0.5;exitDx=0;exitDy=0;entryX=0;entryY=0.25;entryDx=0;entryDy=0;" edge="1" parent="1" source="HzhaL5WDSrDqOw2rNnFT-64" target="HzhaL5WDSrDqOw2rNnFT-9">
          <mxGeometry relative="1" as="geometry">
            <Array as="points">
              <mxPoint x="90" y="779" />
              <mxPoint x="90" y="305" />
            </Array>
          </mxGeometry>
        </mxCell>
        <mxCell id="HzhaL5WDSrDqOw2rNnFT-64" value="Save Program" style="rounded=0;whiteSpace=wrap;html=1;" vertex="1" parent="1">
          <mxGeometry x="587.85" y="756.5" width="90" height="45" as="geometry" />
        </mxCell>
        <mxCell id="HzhaL5WDSrDqOw2rNnFT-65" value="yes" style="text;html=1;align=center;verticalAlign=middle;resizable=0;points=[];autosize=1;strokeColor=none;fillColor=none;" vertex="1" parent="1">
          <mxGeometry x="660" y="629" width="40" height="30" as="geometry" />
        </mxCell>
        <mxCell id="HzhaL5WDSrDqOw2rNnFT-66" value="no" style="text;html=1;align=center;verticalAlign=middle;resizable=0;points=[];autosize=1;strokeColor=none;fillColor=none;" vertex="1" parent="1">
          <mxGeometry x="677.85" y="780" width="40" height="30" as="geometry" />
        </mxCell>
        <mxCell id="HzhaL5WDSrDqOw2rNnFT-75" style="edgeStyle=orthogonalEdgeStyle;rounded=0;orthogonalLoop=1;jettySize=auto;html=1;exitX=0.5;exitY=1;exitDx=0;exitDy=0;entryX=0.75;entryY=0;entryDx=0;entryDy=0;" edge="1" parent="1" source="HzhaL5WDSrDqOw2rNnFT-68" target="HzhaL5WDSrDqOw2rNnFT-62">
          <mxGeometry relative="1" as="geometry" />
        </mxCell>
        <mxCell id="HzhaL5WDSrDqOw2rNnFT-76" style="edgeStyle=orthogonalEdgeStyle;rounded=0;orthogonalLoop=1;jettySize=auto;html=1;exitX=1;exitY=0.5;exitDx=0;exitDy=0;entryX=1;entryY=0.5;entryDx=0;entryDy=0;" edge="1" parent="1" source="HzhaL5WDSrDqOw2rNnFT-68" target="HzhaL5WDSrDqOw2rNnFT-64">
          <mxGeometry relative="1" as="geometry">
            <Array as="points">
              <mxPoint x="780" y="565" />
              <mxPoint x="780" y="779" />
            </Array>
          </mxGeometry>
        </mxCell>
        <mxCell id="HzhaL5WDSrDqOw2rNnFT-68" value="" style="rhombus;whiteSpace=wrap;html=1;" vertex="1" parent="1">
          <mxGeometry x="597.5" y="550" width="37.5" height="30" as="geometry" />
        </mxCell>
        <mxCell id="HzhaL5WDSrDqOw2rNnFT-70" value="edit exercise?" style="text;html=1;align=center;verticalAlign=middle;resizable=0;points=[];autosize=1;strokeColor=none;fillColor=none;" vertex="1" parent="1">
          <mxGeometry x="615.35" y="535" width="100" height="30" as="geometry" />
        </mxCell>
        <mxCell id="HzhaL5WDSrDqOw2rNnFT-71" value="" style="endArrow=classic;html=1;rounded=0;entryX=0.5;entryY=0;entryDx=0;entryDy=0;exitX=1;exitY=1;exitDx=0;exitDy=0;" edge="1" parent="1" source="HzhaL5WDSrDqOw2rNnFT-17" target="HzhaL5WDSrDqOw2rNnFT-68">
          <mxGeometry width="50" height="50" relative="1" as="geometry">
            <mxPoint x="400" y="500" as="sourcePoint" />
            <mxPoint x="450" y="450" as="targetPoint" />
          </mxGeometry>
        </mxCell>
        <mxCell id="HzhaL5WDSrDqOw2rNnFT-72" value="While not finished" style="text;html=1;align=center;verticalAlign=middle;resizable=0;points=[];autosize=1;strokeColor=none;fillColor=none;" vertex="1" parent="1">
          <mxGeometry x="140" y="610" width="120" height="30" as="geometry" />
        </mxCell>
        <mxCell id="HzhaL5WDSrDqOw2rNnFT-73" value="While not finished" style="text;html=1;align=center;verticalAlign=middle;resizable=0;points=[];autosize=1;strokeColor=none;fillColor=none;" vertex="1" parent="1">
          <mxGeometry x="470" y="679.5" width="120" height="30" as="geometry" />
        </mxCell>
      </root>
    </mxGraphModel>
  </diagram>
</mxfile>
